# xmcd
#
# Track frame offsets: 
#        150
#        21887
#        37957
#        64602
#        93397
#        116342
#        134950
#        161395
#
# Disc length: 2480 seconds
#
# Revision: 1
# Processed by: cddbd v1.5.2PL0 Copyright (c) Steve Scherf et al.
# Submitted via: ExactAudioCopy v1.3
#
DISCID=6309ae08
DTITLE=Chế Linh - Thanh Tuyền - Chế Linh - Thanh Tuyền - Mai lỡ mình x
DTITLE=a nhau2
DYEAR=2002
DGENRE=nhạc vn
TTITLE0=Bài Hương ca vô tận
TTITLE1=Thanh Tuyền - Kiếp Nghèo
TTITLE2=Thanh Tuyền - Mấy nhịp cầu tre
TTITLE3=Thanh Tuyền - Hàn mạc tử
TTITLE4=Chế Linh - Nó
TTITLE5=Thanh Tuyền - Biển tình
TTITLE6=Thanh Tuyền - Người ở lại đưa đò
TTITLE7=Thanh Tuyền - Phút cuối
EXTD=
EXTT0=
EXTT1=
EXTT2=
EXTT3=
EXTT4=
EXTT5=
EXTT6=
EXTT7=
PLAYORDER=
